<svg xmlns="http://www.w3.org/2000/svg" width="254.952" height="112.136" viewBox="0 0 254.952 112.136">
  <defs>
    <style>
      .cls-1 {
        fill: #5217af;
      }
    </style>
  </defs>
  <g id="logo_-_white" data-name="logo - white" transform="translate(-4 -4)">
    <path id="Subtraction_1" data-name="Subtraction 1" class="cls-1" d="M55.079,112.136a53.9,53.9,0,0,1-21.439-4.406A54.841,54.841,0,0,1,16.132,95.711a55.942,55.942,0,0,1-11.8-17.819,57.182,57.182,0,0,1,0-43.649,55.941,55.941,0,0,1,11.8-17.82,54.405,54.405,0,0,1,77.9,0,55.947,55.947,0,0,1,11.8,17.821,57.187,57.187,0,0,1,0,43.649,55.95,55.95,0,0,1-11.8,17.822,54.866,54.866,0,0,1-17.508,12.019,53.9,53.9,0,0,1-21.439,4.4Zm-42.043-47.3H23.593L25.279,69.2h6.6L21.319,43.827H15.382L4.786,69.2h6.6l1.65-4.364ZM66.113,49.462V69.2h6.157V49.462h7.956V43.827H58.156v5.635Zm27.931-6.606a13.044,13.044,0,1,0,9.367,3.811,13.172,13.172,0,0,0-9.367-3.811Zm-61.473.478V56.886C32.571,64.6,36.9,69.2,44.154,69.2c7.276,0,11.62-4.6,11.62-12.315V43.339H49.542V56.993A6.946,6.946,0,0,1,48.073,61.6a5.35,5.35,0,0,1-7.819,0A6.991,6.991,0,0,1,38.8,56.993V43.335ZM94.045,63.3a6.712,6.712,0,0,1-4.976-2.142,7.727,7.727,0,0,1,0-10.269,6.85,6.85,0,0,1,9.952,0,7.722,7.722,0,0,1,0,10.267A6.712,6.712,0,0,1,94.046,63.3Zm-72.47-3.729H15.049l3.26-8.546,3.265,8.544Z" transform="translate(4 4)"/>
    <path id="Path_1515" data-name="Path 1515" class="cls-1" d="M948.8,494.258h-6.233c-.329-1.905-1.467-3.21-4.106-3.21-2.2,0-3.628.858-3.628,2.5,0,1.456,1.026,2.088,3,2.5l3.487.747c4.581.97,7.515,2.872,7.515,7.238,0,5.075-4.106,8.21-10.338,8.21-5.609,0-10.668-2.723-11.252-8.994h6.228c.4,2.242,2.274,3.659,5.2,3.659,2.2,0,3.521-.858,3.521-2.277,0-.9-.478-1.828-2.639-2.242l-4.106-.9c-4.912-1.081-7.23-3.348-7.23-7.389,0-5.075,4.032-8.207,9.9-8.207C942.164,485.9,948.174,487.429,948.8,494.258Z" transform="translate(-810.15 -439.043)"/>
    <path id="Path_1516" data-name="Path 1516" class="cls-1" d="M1044.879,498.842c0,5.933-4.252,9.626-11.035,9.626h-3.375v6.457h-6.194V489.55h10.042C1040.844,489.55,1044.879,493.123,1044.879,498.842Zm-6.16,0c0-2.277-1.8-3.77-4.508-3.77h-3.743v7.883h3.74c2.711,0,4.5-1.612,4.5-4.113Z" transform="translate(-881.853 -441.724)"/>
    <path id="Path_1517" data-name="Path 1517" class="cls-1" d="M1135.676,489.55v25.375h-6.16V505.41h-10.151v9.515h-6.2V489.55h6.2v10.187h10.151V489.55Z" transform="translate(-947.547 -441.724)"/>
    <path id="Path_1518" data-name="Path 1518" class="cls-1" d="M1222.457,495.034v4.628h11.07v5.373h-11.07v4.405H1235.1v5.484H1216.26V489.55H1235.1v5.484Z" transform="translate(-1023.729 -441.724)"/>
    <path id="Path_1519" data-name="Path 1519" class="cls-1" d="M1317.579,514.924l-4.729-7.352h-4.729v7.352h-6.194V489.55h10.882c6.194,0,10.338,3.433,10.338,8.917a8.5,8.5,0,0,1-4.216,7.578l5.865,8.88Zm-9.459-13.019h4.583c2.381,0,4.252-1.345,4.252-3.436s-1.868-3.356-4.252-3.356h-4.583Z" transform="translate(-1087.032 -441.724)"/>
    <path id="Path_1520" data-name="Path 1520" class="cls-1" d="M1404.737,495.034v4.628h11.07v5.373h-11.07v4.405h12.646v5.484H1398.54V489.55h18.84v5.484Z" transform="translate(-1158.431 -441.724)"/>
  </g>
</svg>
