<svg width="28" height="29" viewBox="0 0 28 29" fill="none" xmlns="http://www.w3.org/2000/svg">
<rect x="2" y="2.5" width="24" height="24" rx="4" fill="#4B4B4B"/>
<path d="M14.0441 19.6L10.4559 19.6C9.35055 19.6 8.79755 19.6 8.39995 19.3641C8.23101 19.2655 8.08347 19.1341 7.96595 18.9777C7.69995 18.6249 7.69995 18.1328 7.69995 17.15C7.69995 16.1672 7.69995 15.6751 7.96595 15.3223C8.08005 15.1697 8.22775 15.0381 8.39995 14.9359C8.79685 14.7 9.34985 14.7 10.4566 14.7L17.5441 14.7C18.6501 14.7 19.2031 14.7 19.6 14.9359" stroke="white" stroke-width="1.05" stroke-linecap="round" stroke-linejoin="round"/>
<path d="M18.7228 20.1226L20.8279 19.299C20.8786 19.2788 20.9222 19.2441 20.9528 19.1992C20.9835 19.1543 20.9999 19.1013 20.9999 19.0471C20.9999 18.9929 20.9835 18.9399 20.9528 18.895C20.9222 18.8501 20.8786 18.8154 20.8279 18.7952L15.7695 16.8181C15.7202 16.7992 15.6665 16.795 15.6148 16.8059C15.5632 16.8168 15.5159 16.8424 15.4787 16.8795C15.4415 16.9167 15.416 16.9638 15.4054 17.015C15.3948 17.0663 15.3995 17.1195 15.419 17.1682L17.396 22.2277C17.4854 22.4574 17.8099 22.4574 17.8993 22.2277L18.7228 20.1226Z" fill="white"/>
<path d="M7.70005 9.44998L7.70005 9.44999L7.70005 9.45C7.70005 10.4328 7.70005 10.9249 7.96605 11.2777C8.08015 11.4303 8.22785 11.5619 8.40005 11.6641C8.79695 11.9 9.34995 11.9 10.4559 11.9L17.5434 11.9C18.6501 11.9 19.2031 11.9 19.6 11.6641C19.7722 11.5619 19.9199 11.4303 20.034 11.2777C20.3 10.9249 20.3 10.4328 20.3 9.44999C20.3 8.46719 20.3 7.97509 20.034 7.62229C19.9165 7.4659 19.769 7.33453 19.6 7.23589C19.2024 6.99999 18.6494 6.99999 17.5434 6.99999L10.4559 6.99999C9.35065 6.99999 8.79695 6.99999 8.40005 7.23589C8.23111 7.33453 8.08356 7.4659 7.96605 7.62229C7.70005 7.97509 7.70005 8.46719 7.70005 9.44998Z" stroke="white" stroke-width="1.05" stroke-linecap="round" stroke-linejoin="round"/>
</svg>
